<svg version="1.1" id="Layer_1" xmlns="http://www.w3.org/2000/svg" xmlns:xlink="http://www.w3.org/1999/xlink" x="0px" y="0px"
	 width="100%" viewBox="0 0 1024 1024" enable-background="new 0 0 1024 1024" xml:space="preserve">
<path fill="#FEFDFD" opacity="1.000000" stroke="none" 
	d="
M600.000000,1025.000000 
	C400.000000,1025.000000 200.500000,1025.000000 1.000000,1025.000000 
	C1.000000,683.666687 1.000000,342.333344 1.000000,1.000000 
	C342.333344,1.000000 683.666687,1.000000 1025.000000,1.000000 
	C1025.000000,342.333344 1025.000000,683.666687 1025.000000,1025.000000 
	C883.500000,1025.000000 742.000000,1025.000000 600.000000,1025.000000 
M285.133575,161.920258 
	C274.471649,163.925751 263.516083,164.991562 253.231766,168.205414 
	C243.279648,171.315445 233.785828,176.194794 224.505005,181.083511 
	C208.230713,189.656052 195.586823,202.413010 184.609924,217.803223 
	C170.383057,238.020828 161.974625,260.548462 161.344559,285.155701 
	C160.501404,318.084686 161.174850,351.052521 161.032333,384.916901 
	C161.091019,388.943329 161.149719,392.969757 161.039505,397.819672 
	C161.096176,399.214966 161.152832,400.610229 161.049164,402.929840 
	C161.040756,512.589600 161.046173,622.249390 161.016617,731.909119 
	C161.005905,771.607544 175.635468,804.939026 205.213226,831.277588 
	C230.110672,853.448364 259.424225,865.027832 293.031250,865.016541 
	C361.193634,864.993652 429.356018,865.016785 497.518402,864.984619 
	C534.011292,864.967346 570.504150,864.874512 607.921448,864.983521 
	C651.152405,864.980835 694.386658,865.260132 737.611755,864.755493 
	C747.108521,864.644714 756.572815,861.747559 766.863342,860.033508 
	C770.303406,859.052368 773.743469,858.071167 777.920654,857.074280 
	C791.443481,852.356934 803.705078,845.406311 815.332642,836.065918 
	C818.229858,833.576904 821.241699,831.208557 824.006226,828.579895 
	C847.050354,806.669006 861.960205,780.056335 863.749207,748.291992 
	C865.645813,714.617737 864.552368,680.775146 864.935974,646.081787 
	C864.879822,614.721436 864.823669,583.361023 864.935852,551.076782 
	C864.882446,517.385376 864.829041,483.694000 864.940491,449.340790 
	C864.884644,448.892975 864.828796,448.445160 864.931580,447.338715 
	C864.878296,446.893402 864.825012,446.448059 864.939880,445.212372 
	C864.885132,444.140717 864.830383,443.069092 864.939270,441.073181 
	C864.882812,433.382996 864.826416,425.692780 864.937744,417.078430 
	C864.937439,375.110718 865.057800,333.142365 864.832092,291.175842 
	C864.788513,283.068665 864.058838,274.838898 862.512146,266.886139 
	C850.734558,206.330444 796.506042,161.865662 734.796265,161.855576 
	C680.504700,161.846710 626.213074,161.822617 571.921509,161.851059 
	C545.947266,161.864670 519.973083,161.984375 493.112213,161.884460 
	C490.408508,161.943481 487.704803,162.002518 484.139618,161.882416 
	C482.092743,161.940231 480.045898,161.998032 477.076172,161.880524 
	C451.383942,161.938721 425.691711,161.996918 399.076843,161.878098 
	C387.617737,161.872955 376.158539,161.844452 364.699493,161.867371 
	C338.465973,161.919830 312.232513,161.997375 285.133575,161.920258 
z"/>
<path fill="#070C1B" opacity="1.000000" stroke="none" 
	d="
M606.997070,864.815796 
	C570.504150,864.874512 534.011292,864.967346 497.518402,864.984619 
	C429.356018,865.016785 361.193634,864.993652 293.031250,865.016541 
	C259.424225,865.027832 230.110672,853.448364 205.213226,831.277588 
	C175.635468,804.939026 161.005905,771.607544 161.016617,731.909119 
	C161.046173,622.249390 161.040756,512.589600 161.517426,402.466919 
	C164.635193,400.856934 167.606461,400.139282 169.853775,398.455444 
	C172.747681,396.287201 173.939026,397.216248 174.875229,400.026611 
	C175.293671,401.282654 175.748566,402.553528 175.938660,403.853943 
	C176.745728,409.375000 180.100693,412.924561 184.586411,415.849304 
	C193.561142,421.700897 203.879440,425.534607 211.329071,433.711639 
	C212.393539,434.879974 214.312637,435.229401 215.532822,436.302704 
	C223.207474,443.053558 230.960754,449.731812 238.304977,456.830353 
	C240.295258,458.754089 240.285599,462.884583 242.359177,464.560028 
	C250.024292,470.753510 257.934021,476.722717 266.225830,482.036591 
	C272.519073,486.069672 278.732849,489.566956 279.108765,498.172455 
	C279.168915,499.549744 279.991669,501.053772 280.850220,502.211121 
	C288.393616,512.379456 298.414093,520.074341 307.447876,528.760620 
	C309.142914,530.390442 311.078705,532.411804 311.548920,534.550293 
	C312.837402,540.409973 315.768524,544.492188 321.378662,546.745972 
	C324.110413,547.843384 325.130310,549.658936 324.720795,553.034668 
	C324.401031,555.670776 325.397980,559.084534 327.039154,561.198242 
	C329.611420,564.511047 333.039276,567.258972 336.428772,569.816711 
	C343.159393,574.895752 349.728668,580.407959 359.021851,580.105164 
	C361.503021,580.024292 362.547394,581.582397 361.260956,584.173279 
	C358.616455,589.499084 359.402374,595.133911 359.666992,600.941406 
	C357.886780,601.545044 356.425171,601.940369 355.000183,601.940430 
	C356.211334,595.553833 355.348145,594.291138 349.519470,592.644226 
	C347.297028,592.016357 345.249725,590.792664 343.052216,590.048218 
	C336.723297,587.904541 330.940704,589.735779 325.351562,591.813232 
	C326.014801,595.061707 326.504669,597.460999 326.645477,599.842773 
	C324.055695,598.614258 321.814972,597.403320 319.917938,595.995728 
	C323.869019,590.830566 324.335205,584.335754 320.645477,579.725342 
	C319.278900,578.017761 315.868530,576.213562 314.229919,576.799927 
	C310.260254,578.220398 306.508728,580.767517 305.426758,585.483093 
	C302.381195,582.533508 300.717590,584.600220 299.113068,586.653503 
	C289.817230,598.548950 280.527710,610.449341 271.264099,622.369873 
	C269.257202,624.952393 267.364838,627.623840 265.321442,630.387329 
	C285.121277,649.809692 307.914124,662.218262 335.076691,666.654968 
	C335.912415,667.267273 336.666809,667.562317 337.653076,667.554443 
	C339.921265,667.273560 341.957581,667.295654 344.050629,667.663696 
	C346.734924,674.511780 356.650665,678.054565 363.443176,674.752319 
	C369.230591,671.938599 374.669037,668.292236 381.589111,668.851196 
	C384.648499,669.098389 387.813873,669.238831 390.817627,668.741760 
	C399.641632,667.281311 408.227356,668.168701 416.959045,669.797058 
	C422.488190,670.828125 426.980042,672.978882 429.308990,677.828186 
	C431.847015,683.112976 433.071899,689.014465 435.392242,694.422729 
	C436.835083,697.785767 437.016876,699.614197 433.672485,702.254944 
	C430.738098,704.571777 427.350220,708.882141 427.552704,712.098633 
	C428.059723,720.152832 435.614380,726.516113 443.791077,728.061157 
	C445.696564,728.421204 448.356812,728.812683 449.173889,730.122681 
	C451.297211,733.527161 453.312683,732.608276 456.257538,731.535278 
	C463.815308,728.781372 468.567719,731.233582 468.534973,736.743225 
	C471.880310,738.252014 475.030182,739.534851 478.025208,741.111938 
	C478.864532,741.553894 479.933228,743.173462 479.691589,743.704346 
	C479.248749,744.677307 477.968750,745.346985 476.923065,745.941223 
	C476.193054,746.356079 475.271973,746.434692 474.436218,746.663452 
	C474.421021,746.965393 474.405792,747.267334 474.390594,747.569214 
	C478.226715,748.838196 482.062805,750.107178 485.898926,751.376160 
	C485.843964,751.822449 485.789001,752.268677 485.734009,752.714966 
	C484.214783,753.450562 482.695526,754.186218 481.341125,754.842041 
	C481.471344,756.900391 482.266663,759.034424 481.561829,760.386292 
	C479.803986,763.757996 479.759521,766.598755 482.193054,769.549133 
	C482.662262,770.118042 483.040497,771.287720 482.772461,771.855225 
	C480.756409,776.123718 483.864044,778.120361 486.552551,779.879211 
	C489.151611,781.579590 492.426147,782.254089 495.005707,783.975952 
	C497.894104,785.903748 502.076813,788.157654 502.614777,790.878845 
	C503.803192,796.890625 507.277374,797.796570 512.137390,798.048950 
	C514.569031,798.175171 517.127258,798.429688 519.356628,799.312195 
	C523.195251,800.831787 527.039368,802.560303 530.459412,804.835083 
	C532.694519,806.321838 534.778931,808.660828 535.872070,811.093750 
	C537.548340,814.824463 537.851990,819.175537 539.550598,822.892029 
	C544.713501,834.188049 542.078796,841.231812 530.773254,846.065796 
	C529.190308,846.742554 526.957153,849.531433 527.314209,850.488647 
	C528.923340,854.802490 526.999634,856.634644 521.525818,858.063843 
	C524.637390,859.890076 526.309692,861.326843 528.234314,861.870850 
	C530.086426,862.394226 532.199585,862.000671 534.197998,861.998901 
	C541.937439,861.991882 542.819153,861.267517 542.953064,853.546814 
	C543.032837,848.953369 545.860291,846.375183 549.611267,846.313110 
	C553.014160,846.256775 556.652527,847.892334 559.811035,849.514221 
	C562.400146,850.843750 563.728210,853.413696 562.728699,856.747986 
	C562.480652,857.575317 563.369934,859.543823 564.059143,859.719177 
	C567.891724,860.694153 571.807373,861.767883 575.724854,861.898376 
	C584.954041,862.205811 594.202759,861.897217 603.436401,862.126038 
	C604.644775,862.156067 605.811218,863.877686 606.997070,864.815796 
M473.790863,829.322937 
	C473.652924,830.395935 472.994354,831.880859 473.463348,832.473633 
	C476.083282,835.785278 478.976135,838.881042 481.976746,842.278259 
	C483.446777,840.616028 484.507507,839.416626 486.141449,837.568970 
	C490.226013,839.998047 494.144196,842.760010 498.428162,844.724060 
	C501.280701,846.031799 504.657654,846.733704 507.794952,846.718018 
	C510.481110,846.704651 512.015625,844.678345 510.198456,841.815552 
	C508.191650,838.654053 505.870026,835.674255 504.088287,832.396301 
	C503.294861,830.936584 503.549316,828.928833 503.213196,827.192078 
	C502.944550,825.803894 502.824921,824.233154 502.078857,823.118408 
	C499.249908,818.891418 492.477081,818.898499 490.955902,812.958130 
	C490.856934,812.571655 487.168457,812.255981 486.211304,813.104675 
	C483.807251,815.236267 481.907104,817.978699 480.001678,820.618164 
	C478.038727,823.337280 476.308502,826.224365 473.790863,829.322937 
z"/>
<path fill="#0A1022" opacity="1.000000" stroke="none" 
	d="
M359.985626,600.733093 
	C359.402374,595.133911 358.616455,589.499084 361.260956,584.173279 
	C362.547394,581.582397 361.503021,580.024292 359.021851,580.105164 
	C349.728668,580.407959 343.159393,574.895752 336.428772,569.816711 
	C333.039276,567.258972 329.611420,564.511047 327.039154,561.198242 
	C325.397980,559.084534 324.401031,555.670776 324.720795,553.034668 
	C325.130310,549.658936 324.110413,547.843384 321.378662,546.745972 
	C315.768524,544.492188 312.837402,540.409973 311.548920,534.550293 
	C311.078705,532.411804 309.142914,530.390442 307.447876,528.760620 
	C298.414093,520.074341 288.393616,512.379456 280.850220,502.211121 
	C279.991669,501.053772 279.168915,499.549744 279.108765,498.172455 
	C278.732849,489.566956 272.519073,486.069672 266.225830,482.036591 
	C257.934021,476.722717 250.024292,470.753510 242.359177,464.560028 
	C240.285599,462.884583 240.295258,458.754089 238.304977,456.830353 
	C230.960754,449.731812 223.207474,443.053558 215.532822,436.302704 
	C214.312637,435.229401 212.393539,434.879974 211.329071,433.711639 
	C203.879440,425.534607 193.561142,421.700897 184.586411,415.849304 
	C180.100693,412.924561 176.745728,409.375000 175.938660,403.853943 
	C175.748566,402.553528 175.293671,401.282654 174.875229,400.026611 
	C173.939026,397.216248 172.747681,396.287201 169.853775,398.455444 
	C167.606461,400.139282 164.635193,400.856934 161.597595,402.004761 
	C161.152832,400.610229 161.096176,399.214966 161.524841,397.387024 
	C164.510590,394.677002 164.951828,386.146942 162.620087,384.186462 
	C162.312210,383.927551 161.679398,384.055115 161.197083,384.003662 
	C161.174850,351.052521 160.501404,318.084686 161.344559,285.155701 
	C161.974625,260.548462 170.383057,238.020828 185.265930,217.752548 
	C188.486389,216.752701 191.662415,216.454285 193.497818,214.729370 
	C198.516403,210.012909 203.823196,205.223953 207.394806,199.459366 
	C210.619247,194.255081 214.841095,193.347855 219.828613,193.060379 
	C223.255890,192.862854 225.761353,192.612961 226.420868,188.172241 
	C226.654602,186.598465 230.993576,183.932190 232.130264,184.486801 
	C237.288681,187.003647 241.001251,186.400040 243.924942,179.768692 
	C244.990494,182.485489 245.577332,183.763336 245.997910,185.093735 
	C247.448334,189.681656 249.081711,193.892136 253.320496,197.034210 
	C258.044128,200.535675 261.878571,205.213287 266.454529,208.944199 
	C270.719421,212.421463 275.351257,215.483337 280.008484,218.432938 
	C283.315399,220.527344 287.182892,221.778778 290.358215,224.029892 
	C296.357147,228.282791 301.848938,233.257874 307.894623,237.436371 
	C317.150574,243.833664 325.791931,250.809052 333.101410,259.441589 
	C336.056396,262.931427 339.203125,266.879486 343.148590,268.771484 
	C349.867676,271.993530 353.158417,277.413849 356.057739,283.581451 
	C356.751556,285.057465 357.515869,286.782776 358.762390,287.672577 
	C370.586090,296.112610 382.475800,304.462677 394.445770,312.694244 
	C399.338287,316.058777 404.991516,318.569061 406.539001,325.131134 
	C407.334137,328.502869 408.247528,331.855469 408.847961,335.262451 
	C409.938385,341.449402 406.715118,346.794098 400.934113,349.677399 
	C399.310394,350.487244 398.294220,352.515198 396.536072,354.060120 
	C390.128784,354.135773 384.184784,354.135773 377.872345,354.135773 
	C377.872345,357.414032 377.872040,359.889984 377.872375,362.365936 
	C377.881592,425.305176 377.951019,488.244537 377.829742,551.183533 
	C377.813171,559.787354 376.845978,568.389404 376.182526,577.366577 
	C374.038788,587.742310 370.001556,596.325806 359.985626,600.733093 
z"/>
<path fill="#121A34" opacity="1.000000" stroke="none" 
	d="
M864.775635,441.997437 
	C864.830383,443.069092 864.885132,444.140717 864.531311,445.615356 
	C863.562256,446.377441 863.001770,446.736481 862.441345,447.095520 
	C863.218567,447.396149 863.995728,447.696747 864.772949,447.997345 
	C864.828796,448.445160 864.884644,448.892975 864.460388,449.692963 
	C863.325439,450.827850 862.170044,451.566528 862.096619,452.400421 
	C861.602722,458.009369 861.351135,463.639313 860.991821,469.260620 
	C860.894043,470.790100 860.695984,472.313232 860.477661,474.505127 
	C854.951050,472.059448 851.532715,466.783447 845.397217,468.062958 
	C844.662109,468.216278 843.185059,466.963379 842.755310,466.036224 
	C841.327759,462.956482 840.034424,459.785278 839.038574,456.541992 
	C837.764587,452.392700 836.313416,448.843079 832.431030,445.971741 
	C826.365601,441.485809 820.966858,436.058533 815.517761,430.790039 
	C809.519653,424.990692 803.821289,418.882629 797.919312,412.982056 
	C794.540161,409.603699 790.063171,408.102783 785.994629,405.866272 
	C776.256042,400.512817 769.703247,391.425079 765.359985,381.249023 
	C762.915466,375.521545 758.471619,370.593567 753.666260,369.968262 
	C745.818420,368.947052 743.807861,362.539978 740.866150,358.272919 
	C737.063354,352.756805 734.698914,346.396545 728.451233,342.847809 
	C727.794861,342.474976 727.421082,341.573120 726.964844,340.884460 
	C722.889099,334.732208 717.945190,329.004791 717.321106,321.150055 
	C717.297729,320.855896 716.586060,320.616455 715.799072,320.083099 
	C713.701721,324.122894 711.851746,323.222260 709.103271,320.333527 
	C706.056396,317.131073 702.130554,314.752167 698.514465,312.114624 
	C697.784302,311.582031 696.549316,311.021088 695.851196,311.283203 
	C691.767395,312.816772 688.897156,310.464508 686.628662,307.980621 
	C679.716125,300.411835 673.132019,292.542175 666.470886,284.746216 
	C665.843872,284.012390 665.631104,282.939972 665.130859,282.080139 
	C661.305603,275.505249 657.470886,268.935791 653.588806,262.394470 
	C653.277649,261.870087 652.589966,261.569183 652.077148,261.164581 
	C648.249512,258.144958 644.442444,255.098953 640.587830,252.114166 
	C637.489990,249.715347 634.632019,246.061172 631.149109,245.282150 
	C620.664246,242.937012 614.779175,235.910522 611.330872,226.857819 
	C608.800415,220.214890 608.009949,212.993423 599.711121,210.600082 
	C598.895630,210.364914 598.788452,208.252533 597.951904,207.408646 
	C594.786133,204.214996 591.487549,201.148514 588.122986,198.164993 
	C587.861572,197.933228 586.705444,198.969131 585.962524,198.973602 
	C583.674255,198.987411 580.944092,199.555695 579.169983,198.539352 
	C570.287781,193.450806 561.681091,187.883850 552.921265,182.577866 
	C550.206787,180.933655 548.970276,179.163391 549.789246,175.677856 
	C550.871094,171.073746 548.739929,167.428268 545.291382,167.094116 
	C539.974548,166.578888 534.634460,166.232162 529.296082,166.024261 
	C518.678467,165.610779 508.050659,165.430283 497.440796,164.886078 
	C496.248230,164.824905 495.144043,163.041046 493.998871,162.056030 
	C519.973083,161.984375 545.947266,161.864670 571.921509,161.851059 
	C626.213074,161.822617 680.504700,161.846710 734.796265,161.855576 
	C796.506042,161.865662 850.734558,206.330444 862.512146,266.886139 
	C864.058838,274.838898 864.788513,283.068665 864.832092,291.175842 
	C865.057800,333.142365 864.937439,375.110718 864.452820,417.562744 
	C863.316711,418.834167 862.120667,419.607758 862.100769,420.410461 
	C861.944031,426.737762 861.903137,433.074554 862.133606,439.397247 
	C862.166382,440.294891 863.853943,441.132202 864.775635,441.997437 
z"/>
<path fill="#090F20" opacity="1.000000" stroke="none" 
	d="
M607.459229,864.899658 
	C605.811218,863.877686 604.644775,862.156067 603.436401,862.126038 
	C594.202759,861.897217 584.954041,862.205811 575.724854,861.898376 
	C571.807373,861.767883 567.891724,860.694153 564.059143,859.719177 
	C563.369934,859.543823 562.480652,857.575317 562.728699,856.747986 
	C563.728210,853.413696 562.400146,850.843750 559.811035,849.514221 
	C556.652527,847.892334 553.014160,846.256775 549.611267,846.313110 
	C545.860291,846.375183 543.032837,848.953369 542.953064,853.546814 
	C542.819153,861.267517 541.937439,861.991882 534.197998,861.998901 
	C532.199585,862.000671 530.086426,862.394226 528.234314,861.870850 
	C526.309692,861.326843 524.637390,859.890076 521.525818,858.063843 
	C526.999634,856.634644 528.923340,854.802490 527.314209,850.488647 
	C526.957153,849.531433 529.190308,846.742554 530.773254,846.065796 
	C542.078796,841.231812 544.713501,834.188049 539.550598,822.892029 
	C537.851990,819.175537 537.548340,814.824463 535.872070,811.093750 
	C534.778931,808.660828 532.694519,806.321838 530.459412,804.835083 
	C527.039368,802.560303 523.195251,800.831787 519.356628,799.312195 
	C517.127258,798.429688 514.569031,798.175171 512.137390,798.048950 
	C507.277374,797.796570 503.803192,796.890625 502.614777,790.878845 
	C502.076813,788.157654 497.894104,785.903748 495.005707,783.975952 
	C492.426147,782.254089 489.151611,781.579590 486.552551,779.879211 
	C483.864044,778.120361 480.756409,776.123718 482.772461,771.855225 
	C483.040497,771.287720 482.662262,770.118042 482.193054,769.549133 
	C479.759521,766.598755 479.803986,763.757996 481.561829,760.386292 
	C482.266663,759.034424 481.471344,756.900391 481.341125,754.842041 
	C482.695526,754.186218 484.214783,753.450562 485.734009,752.714966 
	C485.789001,752.268677 485.843964,751.822449 485.898926,751.376160 
	C482.062805,750.107178 478.226715,748.838196 474.390594,747.569214 
	C474.405792,747.267334 474.421021,746.965393 474.436218,746.663452 
	C475.271973,746.434692 476.193054,746.356079 476.923065,745.941223 
	C477.968750,745.346985 479.248749,744.677307 479.691589,743.704346 
	C479.933228,743.173462 478.864532,741.553894 478.025208,741.111938 
	C475.030182,739.534851 471.880310,738.252014 468.534973,736.743225 
	C468.567719,731.233582 463.815308,728.781372 456.257538,731.535278 
	C453.312683,732.608276 451.297211,733.527161 449.173889,730.122681 
	C448.356812,728.812683 445.696564,728.421204 443.791077,728.061157 
	C435.614380,726.516113 428.059723,720.152832 427.552704,712.098633 
	C427.350220,708.882141 430.738098,704.571777 433.672485,702.254944 
	C437.016876,699.614197 436.835083,697.785767 435.392242,694.422729 
	C433.071899,689.014465 431.847015,683.112976 429.308990,677.828186 
	C426.980042,672.978882 422.488190,670.828125 416.959045,669.797058 
	C408.227356,668.168701 399.641632,667.281311 390.817627,668.741760 
	C387.813873,669.238831 384.648499,669.098389 381.589111,668.851196 
	C374.669037,668.292236 369.230591,671.938599 363.443176,674.752319 
	C356.650665,678.054565 346.734924,674.511780 344.511139,667.596558 
	C349.276459,667.161255 353.638031,667.139038 358.453247,667.172241 
	C371.137573,666.781006 382.969421,664.589050 394.431580,659.132935 
	C402.022369,654.290222 409.860168,650.206726 416.337128,644.561707 
	C426.303070,635.875854 431.916382,624.010864 437.086761,612.018066 
	C439.487854,611.750427 442.401764,612.030945 443.418091,610.775391 
	C446.077667,607.489685 448.061432,603.612366 450.027161,599.821777 
	C452.067139,595.888000 454.967926,593.763000 459.497406,593.974670 
	C461.112000,594.050110 462.740204,593.834412 464.850250,593.726746 
	C464.850250,591.956543 464.962097,590.507324 464.830902,589.080444 
	C464.259735,582.867981 463.455231,576.670532 463.127594,570.447021 
	C463.054962,569.067444 464.575043,567.603882 465.361725,566.179016 
	C466.236450,567.600769 467.806305,568.994263 467.865631,570.449219 
	C468.123077,576.762939 468.963348,583.319397 467.636566,589.358093 
	C466.235321,595.735413 468.799011,600.347168 470.628967,605.120056 
	C472.063110,603.638550 473.332184,602.327576 474.692505,601.475342 
	C474.783783,622.319885 474.783783,642.705688 474.783783,663.646790 
	C484.404846,663.646790 493.207825,663.646790 502.319153,663.793152 
	C503.487854,663.781372 504.348267,663.623230 505.660095,663.453247 
	C510.740051,663.349915 515.368530,663.258545 520.419067,663.252930 
	C526.899170,663.479004 532.957275,663.619263 539.022705,664.174500 
	C540.019714,665.392334 540.954590,666.798279 542.008484,666.893982 
	C546.702026,667.320068 551.670044,666.512695 556.090820,667.750977 
	C563.495667,669.825195 570.519043,673.228516 577.778381,675.864929 
	C584.649231,678.360291 591.048706,681.094482 596.523071,686.524902 
	C609.907227,699.801392 623.958191,712.406067 637.753479,725.267517 
	C641.467834,728.730469 645.280823,732.089233 648.947388,735.601318 
	C651.308655,737.862976 654.478760,739.953857 655.508972,742.771179 
	C656.996521,746.839417 659.448242,749.247864 662.821045,751.588440 
	C671.626526,757.698792 671.524109,757.846436 680.083252,751.954712 
	C686.286865,747.684509 689.562744,748.889954 691.924683,756.123901 
	C692.455322,757.749268 693.247742,759.633484 694.523804,760.604614 
	C697.915405,763.185608 701.825928,765.098145 705.139221,767.762512 
	C706.583008,768.923584 707.632385,771.224915 707.794495,773.100586 
	C707.901733,774.341431 706.258606,775.888184 705.135193,777.040771 
	C703.801697,778.409058 702.184998,779.501343 700.893066,780.549316 
	C698.722778,779.346313 696.720947,778.236694 694.719177,777.127075 
	C694.325989,777.518860 693.932861,777.910645 693.539734,778.302368 
	C695.360840,781.331238 696.881409,784.600769 699.070557,787.334839 
	C702.744507,791.923401 706.708740,796.302490 710.804016,800.524109 
	C714.664062,804.503235 719.328857,807.781372 722.770630,812.065979 
	C726.876038,817.176575 733.109924,819.823364 736.395325,826.114014 
	C739.631287,832.310059 744.867676,837.822144 752.554199,838.915222 
	C761.907349,840.245422 770.901367,838.704834 779.628052,834.827271 
	C784.534119,832.647461 789.881714,831.461365 795.957642,829.533325 
	C795.065491,835.881775 799.045288,834.830261 802.425537,835.040710 
	C806.539734,835.296875 810.635193,835.854309 814.738770,836.281494 
	C803.705078,845.406311 791.443481,852.356934 777.261719,856.892822 
	C773.971680,853.555420 771.673401,849.995117 768.555969,847.430359 
	C767.192444,846.308533 764.154114,847.222412 761.876282,847.211914 
	C762.193970,849.249084 762.249573,851.374268 762.896301,853.300964 
	C763.690063,855.665161 764.977905,857.863525 766.052063,860.133606 
	C756.572815,861.747559 747.108521,864.644714 737.611755,864.755493 
	C694.386658,865.260132 651.152405,864.980835 607.459229,864.899658 
z"/>
<path fill="#0C1327" opacity="1.000000" stroke="none" 
	d="
M815.035706,836.173706 
	C810.635193,835.854309 806.539734,835.296875 802.425537,835.040710 
	C799.045288,834.830261 795.065491,835.881775 795.957642,829.533325 
	C789.881714,831.461365 784.534119,832.647461 779.628052,834.827271 
	C770.901367,838.704834 761.907349,840.245422 752.554199,838.915222 
	C744.867676,837.822144 739.631287,832.310059 736.395325,826.114014 
	C733.109924,819.823364 726.876038,817.176575 722.770630,812.065979 
	C719.328857,807.781372 714.664062,804.503235 710.804016,800.524109 
	C706.708740,796.302490 702.744507,791.923401 699.070557,787.334839 
	C696.881409,784.600769 695.360840,781.331238 693.539734,778.302368 
	C693.932861,777.910645 694.325989,777.518860 694.719177,777.127075 
	C696.720947,778.236694 698.722778,779.346313 700.893066,780.549316 
	C702.184998,779.501343 703.801697,778.409058 705.135193,777.040771 
	C706.258606,775.888184 707.901733,774.341431 707.794495,773.100586 
	C707.632385,771.224915 706.583008,768.923584 705.139221,767.762512 
	C701.825928,765.098145 697.915405,763.185608 694.523804,760.604614 
	C693.247742,759.633484 692.455322,757.749268 691.924683,756.123901 
	C689.562744,748.889954 686.286865,747.684509 680.083252,751.954712 
	C671.524109,757.846436 671.626526,757.698792 662.821045,751.588440 
	C659.448242,749.247864 656.996521,746.839417 655.508972,742.771179 
	C654.478760,739.953857 651.308655,737.862976 648.947388,735.601318 
	C645.280823,732.089233 641.467834,728.730469 637.753479,725.267517 
	C623.958191,712.406067 609.907227,699.801392 596.523071,686.524902 
	C591.048706,681.094482 584.649231,678.360291 577.778381,675.864929 
	C570.519043,673.228516 563.495667,669.825195 556.090820,667.750977 
	C551.670044,666.512695 546.702026,667.320068 542.008484,666.893982 
	C540.954590,666.798279 540.019714,665.392334 539.483093,664.083740 
	C551.969116,663.423523 564.002014,663.269043 576.472717,663.197144 
	C587.605896,662.863037 598.301270,662.446350 609.436279,662.082581 
	C626.583618,660.947266 642.733154,657.283691 658.701416,651.162720 
	C659.630371,650.810364 660.168091,650.427979 660.764771,650.199097 
	C674.992554,644.741943 688.493652,637.988708 700.569946,628.010254 
	C704.240723,624.886353 707.603088,621.882812 711.110291,619.220215 
	C712.816284,623.029358 715.753479,622.743225 717.830078,620.937256 
	C724.099854,615.484558 730.053711,609.661316 735.989441,603.838501 
	C736.984009,602.862854 737.998840,601.026855 737.764160,599.831848 
	C736.752319,594.678955 739.631592,590.909302 742.210693,587.316528 
	C744.409851,584.253174 747.456055,580.250488 750.578125,579.802246 
	C754.199402,579.282471 755.331177,578.394348 756.244141,575.297424 
	C756.624329,574.007751 758.329224,572.457397 759.601318,572.286377 
	C760.632019,572.147705 761.887146,573.937012 763.096069,574.796021 
	C764.506348,575.798157 765.901794,576.859863 767.430664,577.649841 
	C773.861511,580.972534 780.952332,583.400940 786.609070,587.718994 
	C791.230591,591.246765 794.434875,596.465088 796.319641,602.753235 
	C798.778137,610.955444 801.565613,619.306274 809.059204,625.251038 
	C815.976318,630.738525 822.696594,636.831848 825.051025,646.159424 
	C825.512024,647.985779 827.425232,649.652649 829.030396,650.943115 
	C833.329285,654.399109 838.414734,656.692505 840.173950,662.932739 
	C841.667114,668.229309 846.704773,670.784973 850.856750,669.876282 
	C856.573059,668.625244 859.621155,664.660889 860.078369,658.774597 
	C860.344849,655.343567 861.255737,651.937073 862.177246,648.602661 
	C862.375061,647.886780 863.868225,647.528870 864.764709,647.006042 
	C864.552368,680.775146 865.645813,714.617737 863.749207,748.291992 
	C861.960205,780.056335 847.050354,806.669006 824.006226,828.579895 
	C821.241699,831.208557 818.229858,833.576904 815.035706,836.173706 
z"/>
<path fill="#10172F" opacity="1.000000" stroke="none" 
	d="
M493.555542,161.970245 
	C495.144043,163.041046 496.248230,164.824905 497.440796,164.886078 
	C508.050659,165.430283 518.678467,165.610779 529.296082,166.024261 
	C534.634460,166.232162 539.974548,166.578888 545.291382,167.094116 
	C548.739929,167.428268 550.871094,171.073746 549.789246,175.677856 
	C548.970276,179.163391 550.206787,180.933655 552.921265,182.577866 
	C561.681091,187.883850 570.287781,193.450806 579.169983,198.539352 
	C580.944092,199.555695 583.674255,198.987411 585.962524,198.973602 
	C586.705444,198.969131 587.861572,197.933228 588.122986,198.164993 
	C591.487549,201.148514 594.786133,204.214996 597.951904,207.408646 
	C598.788452,208.252533 598.895630,210.364914 599.711121,210.600082 
	C608.009949,212.993423 608.800415,220.214890 611.330872,226.857819 
	C614.779175,235.910522 620.664246,242.937012 631.149109,245.282150 
	C634.632019,246.061172 637.489990,249.715347 640.587830,252.114166 
	C644.442444,255.098953 648.249512,258.144958 652.077148,261.164581 
	C652.589966,261.569183 653.277649,261.870087 653.588806,262.394470 
	C657.470886,268.935791 661.305603,275.505249 665.130859,282.080139 
	C665.631104,282.939972 665.843872,284.012390 666.470886,284.746216 
	C673.132019,292.542175 679.716125,300.411835 686.628662,307.980621 
	C688.897156,310.464508 691.767395,312.816772 695.851196,311.283203 
	C696.549316,311.021088 697.784302,311.582031 698.514465,312.114624 
	C702.130554,314.752167 706.056396,317.131073 709.103271,320.333527 
	C711.851746,323.222260 713.701721,324.122894 715.799072,320.083099 
	C716.586060,320.616455 717.297729,320.855896 717.321106,321.150055 
	C717.945190,329.004791 722.889099,334.732208 726.964844,340.884460 
	C727.421082,341.573120 727.794861,342.474976 728.451233,342.847809 
	C734.698914,346.396545 737.063354,352.756805 740.866150,358.272919 
	C743.807861,362.539978 745.818420,368.947052 753.666260,369.968262 
	C758.471619,370.593567 762.915466,375.521545 765.359985,381.249023 
	C769.703247,391.425079 776.256042,400.512817 785.994629,405.866272 
	C790.063171,408.102783 794.540161,409.603699 797.919312,412.982056 
	C803.821289,418.882629 809.519653,424.990692 815.517761,430.790039 
	C820.966858,436.058533 826.365601,441.485809 832.431030,445.971741 
	C836.313416,448.843079 837.764587,452.392700 839.038574,456.541992 
	C840.034424,459.785278 841.327759,462.956482 842.755310,466.036224 
	C843.185059,466.963379 844.662109,468.216278 845.397217,468.062958 
	C851.532715,466.783447 854.951050,472.059448 860.477661,474.505127 
	C860.695984,472.313232 860.894043,470.790100 860.991821,469.260620 
	C861.351135,463.639313 861.602722,458.009369 862.096619,452.400421 
	C862.170044,451.566528 863.325439,450.827850 864.377930,450.023865 
	C864.829041,483.694000 864.882446,517.385376 864.501648,551.548706 
	C859.771973,556.643311 855.476501,561.266052 850.693787,566.413086 
	C849.657776,564.868713 848.096252,562.676758 846.675476,560.397034 
	C842.759644,554.114441 839.166199,547.609985 834.917847,541.563843 
	C832.588135,538.248291 828.819580,535.965698 826.349426,532.722534 
	C819.495728,523.723999 811.764709,515.729004 802.647766,508.971741 
	C799.666199,506.761871 797.263062,503.587341 795.094543,500.502991 
	C790.444824,493.889648 783.266663,490.850983 775.034485,492.487640 
	C770.467651,493.395569 767.244507,491.561005 766.034180,487.112427 
	C764.863831,482.810699 764.017944,478.419495 762.801819,474.132233 
	C762.485046,473.015656 761.473938,471.862579 760.462524,471.296387 
	C760.080933,471.082825 758.232422,472.341400 758.023560,473.172821 
	C757.250061,476.251404 756.232239,479.493683 756.524536,482.558289 
	C756.894226,486.435577 758.520081,490.182739 759.482361,494.016602 
	C760.489258,498.028290 758.156189,501.870544 754.166565,502.722748 
	C754.350342,502.182190 754.544434,501.904816 754.802490,501.253815 
	C754.550659,500.245575 754.234863,499.610962 753.830078,498.622314 
	C753.762085,497.541534 753.783081,496.814697 754.115356,495.842773 
	C754.813416,493.222717 756.544006,490.567749 752.937378,488.654297 
	C752.784058,487.581329 752.745239,486.855316 752.994751,485.940674 
	C752.957397,485.102631 752.631653,484.453186 752.210144,483.451721 
	C749.497742,467.038177 745.083862,451.542297 737.337341,437.143036 
	C726.613708,417.209900 713.500061,399.307617 693.935181,386.553650 
	C692.539001,385.291077 691.308716,384.257996 689.942688,383.456024 
	C682.737488,379.225708 675.498108,375.053619 668.031250,370.591125 
	C661.566162,368.008911 655.340454,365.696930 648.892395,363.208527 
	C647.444580,362.522461 646.219055,362.012787 644.964111,361.115417 
	C642.811279,359.373749 640.687866,358.019745 638.005493,356.309326 
	C638.893555,353.791168 639.542847,350.909698 640.873413,348.387695 
	C643.912598,342.626923 642.382935,337.717804 636.237061,335.204712 
	C624.678589,330.478455 616.317932,322.238892 610.775635,311.294739 
	C607.411194,304.651062 600.689270,299.807220 600.226624,291.620483 
	C600.202759,291.198029 599.785156,290.662415 599.399597,290.415985 
	C592.400513,285.941925 589.821045,278.105530 585.535278,271.666351 
	C580.879578,264.671387 576.826050,257.639435 567.896057,255.312531 
	C565.420776,254.667526 563.317627,252.686249 560.946838,251.514008 
	C559.529114,250.813019 557.940918,250.135788 556.399109,250.059616 
	C547.697021,249.629700 546.669373,248.706497 545.994568,240.061996 
	C545.666687,235.861847 543.921265,232.843475 539.434814,231.909866 
	C534.906555,230.967575 532.185791,228.129990 531.336731,223.565689 
	C530.376465,218.403763 527.669617,214.527603 523.324280,211.517319 
	C520.638306,209.656586 517.717957,207.553818 516.098938,204.844849 
	C511.697540,197.480133 504.786224,195.762817 497.144684,194.935532 
	C495.621460,194.770615 494.105438,193.943283 492.726440,193.170822 
	C490.166199,191.736694 487.847076,189.801315 485.180908,188.641693 
	C479.572937,186.202576 473.817444,184.098770 468.100006,181.916336 
	C462.774170,179.883377 458.403717,174.744980 459.172913,171.262619 
	C455.874390,169.733475 452.697144,167.469727 449.228668,166.858627 
	C445.158600,166.141479 440.088196,165.472992 436.781403,167.253281 
	C430.385986,170.696381 424.957825,171.574371 418.922272,167.159821 
	C417.713531,166.275711 415.807953,166.141281 414.201233,166.048111 
	C411.214569,165.874863 408.180450,166.246384 405.225128,165.894913 
	C402.973511,165.627136 399.865936,165.851257 399.999481,162.055115 
	C425.691711,161.996918 451.383942,161.938721 477.553802,162.364899 
	C479.565033,163.558823 481.060577,164.641281 482.650024,164.803513 
	C483.333344,164.873260 484.211487,163.033691 485.001099,162.061554 
	C487.704803,162.002518 490.408508,161.943481 493.555542,161.970245 
z"/>
<path fill="#0D1429" opacity="1.000000" stroke="none" 
	d="
M396.999329,353.984406 
	C398.294220,352.515198 399.310394,350.487244 400.934113,349.677399 
	C406.715118,346.794098 409.938385,341.449402 408.847961,335.262451 
	C408.247528,331.855469 407.334137,328.502869 406.539001,325.131134 
	C404.991516,318.569061 399.338287,316.058777 394.445770,312.694244 
	C382.475800,304.462677 370.586090,296.112610 358.762390,287.672577 
	C357.515869,286.782776 356.751556,285.057465 356.057739,283.581451 
	C353.158417,277.413849 349.867676,271.993530 343.148590,268.771484 
	C339.203125,266.879486 336.056396,262.931427 333.101410,259.441589 
	C325.791931,250.809052 317.150574,243.833664 307.894623,237.436371 
	C301.848938,233.257874 296.357147,228.282791 290.358215,224.029892 
	C287.182892,221.778778 283.315399,220.527344 280.008484,218.432938 
	C275.351257,215.483337 270.719421,212.421463 266.454529,208.944199 
	C261.878571,205.213287 258.044128,200.535675 253.320496,197.034210 
	C249.081711,193.892136 247.448334,189.681656 245.997910,185.093735 
	C245.577332,183.763336 244.990494,182.485489 243.924942,179.768692 
	C241.001251,186.400040 237.288681,187.003647 232.130264,184.486801 
	C230.993576,183.932190 226.654602,186.598465 226.420868,188.172241 
	C225.761353,192.612961 223.255890,192.862854 219.828613,193.060379 
	C214.841095,193.347855 210.619247,194.255081 207.394806,199.459366 
	C203.823196,205.223953 198.516403,210.012909 193.497818,214.729370 
	C191.662415,216.454285 188.486389,216.752701 185.507187,217.543915 
	C195.586823,202.413010 208.230713,189.656052 224.505005,181.083511 
	C233.785828,176.194794 243.279648,171.315445 253.231766,168.205414 
	C263.516083,164.991562 274.471649,163.925751 285.584076,162.398178 
	C287.110657,163.583038 288.114502,164.732681 289.275024,164.922043 
	C294.981018,165.853043 300.709839,166.756516 306.466766,167.231232 
	C312.236450,167.706985 318.170441,168.492081 323.814972,167.662445 
	C333.049927,166.305099 341.491608,166.306839 349.005463,172.898575 
	C351.840179,175.385406 355.235840,177.390472 358.662964,179.006012 
	C363.355408,181.218033 367.821747,183.785217 373.751007,182.279480 
	C378.756256,181.008392 384.751709,180.091827 389.403107,181.676651 
	C400.642761,185.506226 411.411194,190.763153 422.231750,195.744171 
	C424.642334,196.853836 426.584564,199.092926 428.567841,200.994125 
	C432.021484,204.304977 435.350342,207.746704 438.710815,211.153961 
	C441.661743,214.145981 444.450562,217.313568 447.558655,220.130325 
	C450.427155,222.729965 453.617981,224.975159 456.680267,227.359238 
	C458.195496,228.538834 460.175140,229.385071 461.195984,230.889969 
	C465.172546,236.752151 470.223969,241.246216 476.086426,245.241760 
	C480.660004,248.358856 484.774963,252.446045 488.281982,256.761749 
	C493.684937,263.410675 498.118164,270.841278 505.776428,275.405884 
	C507.416626,276.383484 508.621582,278.187439 509.842743,279.754303 
	C513.776855,284.802155 517.618347,289.921997 521.511963,295.001495 
	C522.216370,295.920471 523.392212,296.668335 523.680176,297.685028 
	C525.389771,303.721222 530.263489,306.564117 535.083008,309.591644 
	C537.726135,311.251953 540.336243,313.070831 542.601929,315.200500 
	C545.849854,318.253448 548.241150,322.604126 551.959351,324.674988 
	C556.897339,327.425262 555.894348,329.890228 554.216919,333.913361 
	C552.917297,337.030304 552.413818,340.821930 552.760803,344.189514 
	C553.133057,347.802032 552.465576,349.620789 548.777405,350.018799 
	C547.997498,350.102966 547.260437,350.585449 545.976135,351.092743 
	C549.139404,351.928802 551.573730,352.572235 553.573792,353.295410 
	C551.108093,353.517975 549.076599,353.660797 546.627380,353.660522 
	C544.136169,353.412415 542.062744,353.307373 539.982300,352.793945 
	C538.225098,349.643738 530.413147,347.310425 527.253662,349.008881 
	C525.563110,349.917664 524.415405,351.836365 522.766602,353.389404 
	C522.000427,353.627075 521.490417,353.774628 520.516724,353.854980 
	C505.158295,354.068390 490.263519,354.348969 474.602631,354.643982 
	C474.602631,370.532288 474.602631,385.767883 474.273743,401.016968 
	C472.808777,401.527191 471.672699,402.023865 469.891205,402.802734 
	C468.864227,398.530182 467.833496,394.562592 466.968842,390.559143 
	C466.012146,386.129303 462.121368,385.742554 458.910187,385.349884 
	C457.859650,385.221375 455.577728,388.325470 455.268951,390.185333 
	C454.107239,397.182922 453.482239,404.272339 452.738831,411.336029 
	C451.459900,423.488373 449.960754,435.627808 449.121613,447.811737 
	C448.715149,453.713196 449.976227,459.714844 449.795471,465.650208 
	C449.576508,472.838776 448.456390,479.995483 448.057831,487.184357 
	C447.763336,492.496338 447.955963,497.838257 448.020081,503.165771 
	C448.046814,505.385437 447.879120,507.262482 444.849091,506.534393 
	C444.752014,457.653107 444.742798,409.234558 444.697876,360.816010 
	C444.696075,358.854645 444.356964,356.893585 444.100708,354.680084 
	C443.700470,354.371033 443.374542,354.314301 442.580444,354.199829 
	C432.744324,354.193390 423.376373,354.244720 413.546967,354.215759 
	C407.723419,354.085144 402.361389,354.034760 396.999329,353.984406 
z"/>
<path fill="#0F162D" opacity="1.000000" stroke="none" 
	d="
M554.008057,353.215637 
	C551.573730,352.572235 549.139404,351.928802 545.976135,351.092743 
	C547.260437,350.585449 547.997498,350.102966 548.777405,350.018799 
	C552.465576,349.620789 553.133057,347.802032 552.760803,344.189514 
	C552.413818,340.821930 552.917297,337.030304 554.216919,333.913361 
	C555.894348,329.890228 556.897339,327.425262 551.959351,324.674988 
	C548.241150,322.604126 545.849854,318.253448 542.601929,315.200500 
	C540.336243,313.070831 537.726135,311.251953 535.083008,309.591644 
	C530.263489,306.564117 525.389771,303.721222 523.680176,297.685028 
	C523.392212,296.668335 522.216370,295.920471 521.511963,295.001495 
	C517.618347,289.921997 513.776855,284.802155 509.842743,279.754303 
	C508.621582,278.187439 507.416626,276.383484 505.776428,275.405884 
	C498.118164,270.841278 493.684937,263.410675 488.281982,256.761749 
	C484.774963,252.446045 480.660004,248.358856 476.086426,245.241760 
	C470.223969,241.246216 465.172546,236.752151 461.195984,230.889969 
	C460.175140,229.385071 458.195496,228.538834 456.680267,227.359238 
	C453.617981,224.975159 450.427155,222.729965 447.558655,220.130325 
	C444.450562,217.313568 441.661743,214.145981 438.710815,211.153961 
	C435.350342,207.746704 432.021484,204.304977 428.567841,200.994125 
	C426.584564,199.092926 424.642334,196.853836 422.231750,195.744171 
	C411.411194,190.763153 400.642761,185.506226 389.403107,181.676651 
	C384.751709,180.091827 378.756256,181.008392 373.751007,182.279480 
	C367.821747,183.785217 363.355408,181.218033 358.662964,179.006012 
	C355.235840,177.390472 351.840179,175.385406 349.005463,172.898575 
	C341.491608,166.306839 333.049927,166.305099 323.814972,167.662445 
	C318.170441,168.492081 312.236450,167.706985 306.466766,167.231232 
	C300.709839,166.756516 294.981018,165.853043 289.275024,164.922043 
	C288.114502,164.732681 287.110657,163.583038 286.016785,162.470428 
	C312.232513,161.997375 338.465973,161.919830 364.699493,161.867371 
	C376.158539,161.844452 387.617737,161.872955 399.538147,161.966599 
	C399.865936,165.851257 402.973511,165.627136 405.225128,165.894913 
	C408.180450,166.246384 411.214569,165.874863 414.201233,166.048111 
	C415.807953,166.141281 417.713531,166.275711 418.922272,167.159821 
	C424.957825,171.574371 430.385986,170.696381 436.781403,167.253281 
	C440.088196,165.472992 445.158600,166.141479 449.228668,166.858627 
	C452.697144,167.469727 455.874390,169.733475 459.172913,171.262619 
	C458.403717,174.744980 462.774170,179.883377 468.100006,181.916336 
	C473.817444,184.098770 479.572937,186.202576 485.180908,188.641693 
	C487.847076,189.801315 490.166199,191.736694 492.726440,193.170822 
	C494.105438,193.943283 495.621460,194.770615 497.144684,194.935532 
	C504.786224,195.762817 511.697540,197.480133 516.098938,204.844849 
	C517.717957,207.553818 520.638306,209.656586 523.324280,211.517319 
	C527.669617,214.527603 530.376465,218.403763 531.336731,223.565689 
	C532.185791,228.129990 534.906555,230.967575 539.434814,231.909866 
	C543.921265,232.843475 545.666687,235.861847 545.994568,240.061996 
	C546.669373,248.706497 547.697021,249.629700 556.399109,250.059616 
	C557.940918,250.135788 559.529114,250.813019 560.946838,251.514008 
	C563.317627,252.686249 565.420776,254.667526 567.896057,255.312531 
	C576.826050,257.639435 580.879578,264.671387 585.535278,271.666351 
	C589.821045,278.105530 592.400513,285.941925 599.399597,290.415985 
	C599.785156,290.662415 600.202759,291.198029 600.226624,291.620483 
	C600.689270,299.807220 607.411194,304.651062 610.775635,311.294739 
	C616.317932,322.238892 624.678589,330.478455 636.237061,335.204712 
	C642.382935,337.717804 643.912598,342.626923 640.873413,348.387695 
	C639.542847,350.909698 638.893555,353.791168 638.005493,356.309326 
	C640.687866,358.019745 642.811279,359.373749 644.557983,361.053101 
	C639.788086,360.452057 635.394836,359.525635 630.951538,358.344482 
	C630.281677,358.024811 629.661926,357.959808 628.663208,357.844238 
	C627.523376,357.727844 626.762512,357.662018 625.950623,357.340637 
	C625.277710,357.028625 624.655823,356.972168 623.613647,356.871216 
	C621.796204,356.816559 620.398865,356.806396 618.965576,356.529358 
	C618.311462,356.113495 617.693237,355.964508 616.697632,355.803436 
	C615.074768,355.812622 613.829285,355.833893 612.248291,355.571320 
	C605.604858,354.703644 599.296814,354.119843 592.932129,353.295837 
	C592.254700,353.190399 591.633972,353.325195 590.611694,353.550598 
	C578.142761,353.499359 566.075378,353.357483 554.008057,353.215637 
z"/>
<path fill="#0F162D" opacity="1.000000" stroke="none" 
	d="
M754.176941,502.985931 
	C758.156189,501.870544 760.489258,498.028290 759.482361,494.016602 
	C758.520081,490.182739 756.894226,486.435577 756.524536,482.558289 
	C756.232239,479.493683 757.250061,476.251404 758.023560,473.172821 
	C758.232422,472.341400 760.080933,471.082825 760.462524,471.296387 
	C761.473938,471.862579 762.485046,473.015656 762.801819,474.132233 
	C764.017944,478.419495 764.863831,482.810699 766.034180,487.112427 
	C767.244507,491.561005 770.467651,493.395569 775.034485,492.487640 
	C783.266663,490.850983 790.444824,493.889648 795.094543,500.502991 
	C797.263062,503.587341 799.666199,506.761871 802.647766,508.971741 
	C811.764709,515.729004 819.495728,523.723999 826.349426,532.722534 
	C828.819580,535.965698 832.588135,538.248291 834.917847,541.563843 
	C839.166199,547.609985 842.759644,554.114441 846.675476,560.397034 
	C848.096252,562.676758 849.657776,564.868713 850.693787,566.413086 
	C855.476501,561.266052 859.771973,556.643311 864.417480,552.010620 
	C864.823669,583.361023 864.879822,614.721436 864.850342,646.543945 
	C863.868225,647.528870 862.375061,647.886780 862.177246,648.602661 
	C861.255737,651.937073 860.344849,655.343567 860.078369,658.774597 
	C859.621155,664.660889 856.573059,668.625244 850.856750,669.876282 
	C846.704773,670.784973 841.667114,668.229309 840.173950,662.932739 
	C838.414734,656.692505 833.329285,654.399109 829.030396,650.943115 
	C827.425232,649.652649 825.512024,647.985779 825.051025,646.159424 
	C822.696594,636.831848 815.976318,630.738525 809.059204,625.251038 
	C801.565613,619.306274 798.778137,610.955444 796.319641,602.753235 
	C794.434875,596.465088 791.230591,591.246765 786.609070,587.718994 
	C780.952332,583.400940 773.861511,580.972534 767.430664,577.649841 
	C765.901794,576.859863 764.506348,575.798157 763.096069,574.796021 
	C761.887146,573.937012 760.632019,572.147705 759.601318,572.286377 
	C758.329224,572.457397 756.624329,574.007751 756.244141,575.297424 
	C755.331177,578.394348 754.199402,579.282471 750.578125,579.802246 
	C747.456055,580.250488 744.409851,584.253174 742.210693,587.316528 
	C739.631592,590.909302 736.752319,594.678955 737.764160,599.831848 
	C737.998840,601.026855 736.984009,602.862854 735.989441,603.838501 
	C730.053711,609.661316 724.099854,615.484558 717.830078,620.937256 
	C715.753479,622.743225 712.816284,623.029358 711.246094,618.916504 
	C713.936096,615.420471 716.832336,612.728394 719.292847,609.684143 
	C724.194153,603.620056 728.856079,597.362427 733.930908,590.989990 
	C734.473816,590.129150 734.702515,589.463135 734.989258,588.463501 
	C745.494202,569.767883 751.062317,549.894348 753.728088,529.005859 
	C758.007019,528.103699 761.176758,524.095093 760.809387,520.190247 
	C760.441406,516.278015 758.358459,514.260681 754.146484,514.571899 
	C754.109131,510.426025 754.143066,506.705963 754.176941,502.985931 
z"/>
<path fill="#0C1327" opacity="1.000000" stroke="none" 
	d="
M766.457703,860.083557 
	C764.977905,857.863525 763.690063,855.665161 762.896301,853.300964 
	C762.249573,851.374268 762.193970,849.249084 761.876282,847.211914 
	C764.154114,847.222412 767.192444,846.308533 768.555969,847.430359 
	C771.673401,849.995117 773.971680,853.555420 776.893188,856.900757 
	C773.743469,858.071167 770.303406,859.052368 766.457703,860.083557 
z"/>
<path fill="#10172F" opacity="1.000000" stroke="none" 
	d="
M864.857422,441.535309 
	C863.853943,441.132202 862.166382,440.294891 862.133606,439.397247 
	C861.903137,433.074554 861.944031,426.737762 862.100769,420.410461 
	C862.120667,419.607758 863.316711,418.834167 864.368896,418.024841 
	C864.826416,425.692780 864.882812,433.382996 864.857422,441.535309 
z"/>
<path fill="#070C1B" opacity="1.000000" stroke="none" 
	d="
M161.114716,384.460297 
	C161.679398,384.055115 162.312210,383.927551 162.620087,384.186462 
	C164.951828,386.146942 164.510590,394.677002 161.609299,396.975281 
	C161.149719,392.969757 161.091019,388.943329 161.114716,384.460297 
z"/>
<path fill="#121A34" opacity="1.000000" stroke="none" 
	d="
M484.570374,161.971985 
	C484.211487,163.033691 483.333344,164.873260 482.650024,164.803513 
	C481.060577,164.641281 479.565033,163.558823 478.015228,162.452545 
	C480.045898,161.998032 482.092743,161.940231 484.570374,161.971985 
z"/>
<path fill="#10172F" opacity="1.000000" stroke="none" 
	d="
M864.852295,447.668030 
	C863.995728,447.696747 863.218567,447.396149 862.441345,447.095520 
	C863.001770,446.736481 863.562256,446.377441 864.447205,446.010559 
	C864.825012,446.448059 864.878296,446.893402 864.852295,447.668030 
z"/>
<path fill="#5475DF" opacity="1.000000" stroke="none" 
	d="
M394.068939,659.192505 
	C382.969421,664.589050 371.137573,666.781006 358.446167,666.788330 
	C356.768982,665.218567 355.615997,664.007874 354.317902,662.980530 
	C353.057770,661.983154 350.625092,661.320801 350.472717,660.258179 
	C349.551392,653.833679 348.767700,647.341492 348.681000,640.862000 
	C348.622711,636.504089 350.598633,632.050171 350.178955,627.785400 
	C349.766022,623.589172 349.001312,620.056763 351.662994,616.087830 
	C354.363953,612.060303 353.089447,610.320984 348.046204,608.830505 
	C346.383545,608.339111 344.801788,607.573975 342.506012,606.666260 
	C344.154480,605.324524 345.106354,604.549805 346.425385,603.688904 
	C349.516235,603.180420 352.239899,602.758057 354.963593,602.335754 
	C356.425171,601.940369 357.886780,601.545044 359.666992,600.941406 
	C370.001556,596.325806 374.038788,587.742310 376.506592,577.284973 
	C377.762024,576.259888 378.483002,575.385864 379.364166,575.171997 
	C384.423279,573.944031 386.400024,570.705261 386.027161,565.683838 
	C385.929840,564.372864 386.005768,563.004272 386.272125,561.718079 
	C388.553894,550.698608 387.968994,539.688721 385.713257,528.800476 
	C384.284119,521.901978 382.920898,515.233765 385.610901,508.295715 
	C386.318542,506.470551 385.495758,504.078796 385.494965,501.947174 
	C385.492493,495.265198 384.135651,488.160492 385.975220,482.019928 
	C387.822662,475.853088 389.146271,469.971039 389.026642,463.611572 
	C388.873260,455.456177 387.208618,447.130493 391.621338,439.408997 
	C392.042419,438.672180 391.557861,437.080322 391.009460,436.180573 
	C386.778107,429.238251 386.445587,421.897675 388.380920,414.227142 
	C388.736511,412.817780 389.198273,411.096039 388.715973,409.870789 
	C386.059875,403.123352 387.542908,396.915741 390.600433,390.785950 
	C391.185852,389.612183 391.937988,388.300537 391.901886,387.073425 
	C391.655579,378.700226 395.839020,375.022858 405.999268,374.442383 
	C403.304321,389.095428 403.031891,403.415802 403.915710,417.806519 
	C404.023926,419.568573 402.741425,421.534058 403.147919,423.141052 
	C406.210999,435.249939 404.749451,447.287750 403.042603,459.351532 
	C402.928375,460.158783 403.084503,461.008759 403.149719,461.836151 
	C403.751770,469.474854 404.473358,477.106110 404.938599,484.753052 
	C405.436462,492.936096 405.750092,501.131805 406.031219,509.325867 
	C406.147797,512.724670 405.965729,516.133423 405.929504,519.537781 
	C405.875458,524.615662 405.571014,529.707581 405.842102,534.768372 
	C406.247955,542.344910 407.502014,549.895691 407.569153,557.464783 
	C407.628998,564.207397 406.438171,570.952209 406.027740,577.709900 
	C405.255188,590.430359 404.647675,603.160828 403.968323,615.887024 
	C403.950623,616.218628 403.894012,616.548096 403.859100,616.878967 
	C403.110199,623.978638 406.389648,631.416931 402.054016,638.240967 
	C401.774292,638.681213 401.962616,639.620544 402.236847,640.178589 
	C404.108398,643.986816 402.034851,646.263855 399.063812,647.916077 
	C394.473206,650.468872 392.114929,653.827942 394.068939,659.192505 
z"/>
<path fill="#5C6FDD" opacity="1.000000" stroke="none" 
	d="
M346.058228,603.775085 
	C345.106354,604.549805 344.154480,605.324524 342.506012,606.666260 
	C344.801788,607.573975 346.383545,608.339111 348.046204,608.830505 
	C353.089447,610.320984 354.363953,612.060303 351.662994,616.087830 
	C349.001312,620.056763 349.766022,623.589172 350.178955,627.785400 
	C350.598633,632.050171 348.622711,636.504089 348.681000,640.862000 
	C348.767700,647.341492 349.551392,653.833679 350.472717,660.258179 
	C350.625092,661.320801 353.057770,661.983154 354.317902,662.980530 
	C355.615997,664.007874 356.768982,665.218567 357.992493,666.732910 
	C353.638031,667.139038 349.276459,667.161255 344.454407,667.250610 
	C341.957581,667.295654 339.921265,667.273560 337.533661,667.243225 
	C336.453369,666.935913 335.724365,666.636841 334.995361,666.337769 
	C307.914124,662.218262 285.121277,649.809692 265.321442,630.387329 
	C267.364838,627.623840 269.257202,624.952393 271.264099,622.369873 
	C280.527710,610.449341 289.817230,598.548950 299.113068,586.653503 
	C300.717590,584.600220 302.381195,582.533508 305.586975,585.741455 
	C310.567169,589.528748 315.070709,592.860596 319.574219,596.192383 
	C321.814972,597.403320 324.055695,598.614258 326.981995,600.024170 
	C333.797791,601.407166 339.928009,602.591125 346.058228,603.775085 
z"/>
<path fill="#090F20" opacity="1.000000" stroke="none" 
	d="
M474.133667,829.180420 
	C476.308502,826.224365 478.038727,823.337280 480.001678,820.618164 
	C481.907104,817.978699 483.807251,815.236267 486.211304,813.104675 
	C487.168457,812.255981 490.856934,812.571655 490.955902,812.958130 
	C492.477081,818.898499 499.249908,818.891418 502.078857,823.118408 
	C502.824921,824.233154 502.944550,825.803894 503.213196,827.192078 
	C503.549316,828.928833 503.294861,830.936584 504.088287,832.396301 
	C505.870026,835.674255 508.191650,838.654053 510.198456,841.815552 
	C512.015625,844.678345 510.481110,846.704651 507.794952,846.718018 
	C504.657654,846.733704 501.280701,846.031799 498.428162,844.724060 
	C494.144196,842.760010 490.226013,839.998047 486.141449,837.568970 
	C484.507507,839.416626 483.446777,840.616028 481.976746,842.278259 
	C478.976135,838.881042 476.083282,835.785278 473.463348,832.473633 
	C472.994354,831.880859 473.652924,830.395935 474.133667,829.180420 
z"/>
<path fill="#0A1022" opacity="1.000000" stroke="none" 
	d="
M346.425415,603.688904 
	C339.928009,602.591125 333.797791,601.407166 327.331055,600.041748 
	C326.504669,597.460999 326.014801,595.061707 325.351562,591.813232 
	C330.940704,589.735779 336.723297,587.904541 343.052216,590.048218 
	C345.249725,590.792664 347.297028,592.016357 349.519470,592.644226 
	C355.348145,594.291138 356.211334,595.553833 355.000183,601.940430 
	C352.239899,602.758057 349.516235,603.180420 346.425415,603.688904 
z"/>
<path fill="#0A1022" opacity="1.000000" stroke="none" 
	d="
M319.917908,595.995728 
	C315.070709,592.860596 310.567169,589.528748 305.903442,585.938599 
	C306.508728,580.767517 310.260254,578.220398 314.229919,576.799927 
	C315.868530,576.213562 319.278900,578.017761 320.645477,579.725342 
	C324.335205,584.335754 323.869019,590.830566 319.917908,595.995728 
z"/>
<path fill="#090F20" opacity="1.000000" stroke="none" 
	d="
M335.076691,666.654968 
	C335.724365,666.636841 336.453369,666.935913 337.301819,667.546143 
	C336.666809,667.562317 335.912415,667.267273 335.076691,666.654968 
z"/>
<path fill="#5778E1" opacity="1.000000" stroke="none" 
	d="
M405.998779,374.000000 
	C395.839020,375.022858 391.655579,378.700226 391.901886,387.073425 
	C391.937988,388.300537 391.185852,389.612183 390.600433,390.785950 
	C387.542908,396.915741 386.059875,403.123352 388.715973,409.870789 
	C389.198273,411.096039 388.736511,412.817780 388.380920,414.227142 
	C386.445587,421.897675 386.778107,429.238251 391.009460,436.180573 
	C391.557861,437.080322 392.042419,438.672180 391.621338,439.408997 
	C387.208618,447.130493 388.873260,455.456177 389.026642,463.611572 
	C389.146271,469.971039 387.822662,475.853088 385.975220,482.019928 
	C384.135651,488.160492 385.492493,495.265198 385.494965,501.947174 
	C385.495758,504.078796 386.318542,506.470551 385.610901,508.295715 
	C382.920898,515.233765 384.284119,521.901978 385.713257,528.800476 
	C387.968994,539.688721 388.553894,550.698608 386.272125,561.718079 
	C386.005768,563.004272 385.929840,564.372864 386.027161,565.683838 
	C386.400024,570.705261 384.423279,573.944031 379.364166,575.171997 
	C378.483002,575.385864 377.762024,576.259888 376.643005,576.910645 
	C376.845978,568.389404 377.813171,559.787354 377.829742,551.183533 
	C377.951019,488.244537 377.881592,425.305176 377.872375,362.365936 
	C377.872040,359.889984 377.872345,357.414032 377.872345,354.135773 
	C384.184784,354.135773 390.128784,354.135773 396.536072,354.060059 
	C402.361389,354.034760 407.723419,354.085144 413.544922,354.623505 
	C414.336243,358.074738 414.668121,361.037994 414.654388,364.035583 
	C411.538788,367.379944 408.768768,370.689972 405.998779,374.000000 
z"/>
<path fill="#4086E5" opacity="1.000000" stroke="none" 
	d="
M474.602631,401.003448 
	C474.602631,385.767883 474.602631,370.532288 474.602631,354.643982 
	C490.263519,354.348969 505.158295,354.068390 520.558350,354.216736 
	C522.247314,355.707001 523.488342,356.712433 524.596497,357.847595 
	C525.468323,358.740662 526.472534,359.680084 526.901306,360.797211 
	C528.187012,364.147034 529.279175,367.576050 530.318970,371.012817 
	C530.689819,372.238831 531.070374,373.660492 530.802307,374.847382 
	C529.535583,380.456757 528.800293,386.356262 526.470581,391.518280 
	C522.246704,400.877258 521.620972,410.125153 523.827942,420.018494 
	C524.854797,424.621582 524.644531,429.537048 524.681763,434.313324 
	C524.713135,438.344482 523.970703,442.394653 524.164734,446.407715 
	C524.346863,450.172577 525.734070,453.889893 525.821472,457.645996 
	C525.939819,462.736603 525.594238,467.878845 524.946533,472.934723 
	C524.324463,477.790314 522.041443,482.618286 522.293457,487.362488 
	C522.833130,497.518433 524.572998,507.608490 525.713806,517.737671 
	C525.832764,518.793762 525.419067,520.023560 524.932495,521.015869 
	C521.480347,528.056335 521.358337,535.491943 524.019226,542.490845 
	C525.730896,546.992981 526.196106,550.944824 525.033081,555.473572 
	C524.490540,557.585999 524.857666,559.941284 524.874207,562.186096 
	C524.910461,567.090088 525.143738,571.998413 524.999695,576.896240 
	C524.866760,581.418152 524.317932,585.926758 524.006348,590.444946 
	C523.785522,593.647583 523.361267,596.874146 523.553101,600.058289 
	C523.833069,604.704895 523.068970,610.528198 525.537903,613.632812 
	C528.307312,617.115295 527.589478,618.667053 526.003052,621.603516 
	C523.668701,625.924194 521.949219,630.153503 522.657349,635.648987 
	C523.445374,641.764221 522.661987,648.262085 521.456787,654.375427 
	C520.881775,657.292358 519.074097,659.962708 519.997070,663.167114 
	C515.368530,663.258545 510.740051,663.349915 505.500488,663.149231 
	C503.929871,663.120422 502.970367,663.383606 502.010834,663.646790 
	C493.207825,663.646790 484.404846,663.646790 474.783783,663.646790 
	C474.783783,642.705688 474.783783,622.319885 474.788269,601.014282 
	C474.808014,534.556091 474.824127,469.017792 474.828705,403.479462 
	C474.828766,402.654114 474.681244,401.828796 474.602631,401.003448 
z"/>
<path fill="#3A8CE6" opacity="1.000000" stroke="none" 
	d="
M520.419067,663.252930 
	C519.074097,659.962708 520.881775,657.292358 521.456787,654.375427 
	C522.661987,648.262085 523.445374,641.764221 522.657349,635.648987 
	C521.949219,630.153503 523.668701,625.924194 526.003052,621.603516 
	C527.589478,618.667053 528.307312,617.115295 525.537903,613.632812 
	C523.068970,610.528198 523.833069,604.704895 523.553101,600.058289 
	C523.361267,596.874146 523.785522,593.647583 524.006348,590.444946 
	C524.317932,585.926758 524.866760,581.418152 524.999695,576.896240 
	C525.143738,571.998413 524.910461,567.090088 524.874207,562.186096 
	C524.857666,559.941284 524.490540,557.585999 525.033081,555.473572 
	C526.196106,550.944824 525.730896,546.992981 524.019226,542.490845 
	C521.358337,535.491943 521.480347,528.056335 524.932495,521.015869 
	C525.419067,520.023560 525.832764,518.793762 525.713806,517.737671 
	C524.572998,507.608490 522.833130,497.518433 522.293457,487.362488 
	C522.041443,482.618286 524.324463,477.790314 524.946533,472.934723 
	C525.594238,467.878845 525.939819,462.736603 525.821472,457.645996 
	C525.734070,453.889893 524.346863,450.172577 524.164734,446.407715 
	C523.970703,442.394653 524.713135,438.344482 524.681763,434.313324 
	C524.644531,429.537048 524.854797,424.621582 523.827942,420.018494 
	C521.620972,410.125153 522.246704,400.877258 526.470581,391.518280 
	C528.800293,386.356262 529.535583,380.456757 530.802307,374.847382 
	C531.070374,373.660492 530.689819,372.238831 530.318970,371.012817 
	C529.279175,367.576050 528.187012,364.147034 526.901306,360.797211 
	C526.472534,359.680084 525.468323,358.740662 524.596497,357.847595 
	C523.488342,356.712433 522.247314,355.707001 521.021973,354.283875 
	C521.490417,353.774628 522.000427,353.627075 523.226624,353.468048 
	C529.291626,353.371826 534.640503,353.287079 539.989319,353.202332 
	C542.062744,353.307373 544.136169,353.412415 546.813843,353.965546 
	C553.190979,354.609558 558.962646,354.884064 564.737183,354.979675 
	C570.669067,355.077911 576.603943,355.001434 581.526917,355.001434 
	C583.889954,360.866241 586.173157,365.640015 587.729492,370.640045 
	C589.370789,375.912689 591.861572,381.596802 591.208679,386.749817 
	C590.218445,394.564148 586.832703,402.074921 584.577820,409.349670 
	C582.416321,409.943268 580.704590,410.413330 578.530579,410.960815 
	C565.808472,411.038239 553.548706,411.038239 541.003174,411.038239 
	C541.003174,476.083862 541.003174,540.455444 541.003174,605.105469 
	C543.076904,605.387878 545.025879,605.653320 547.181641,606.194336 
	C548.600342,606.289917 549.812317,606.109924 551.349487,605.847778 
	C552.115173,605.820862 552.555725,605.876221 553.278687,606.240845 
	C560.042114,607.941956 567.043701,605.473633 573.242615,609.768555 
	C575.510315,611.339722 576.543335,612.325989 575.108276,614.703979 
	C573.169922,617.916016 574.465149,620.468811 576.053833,623.428223 
	C577.337036,625.818665 578.060913,628.867065 577.955994,631.581848 
	C577.549255,642.101807 576.711914,652.605103 576.034973,663.114563 
	C564.002014,663.269043 551.969116,663.423523 539.475708,663.668762 
	C532.957275,663.619263 526.899170,663.479004 520.419067,663.252930 
z"/>
<path fill="#4E79E1" opacity="1.000000" stroke="none" 
	d="
M405.999237,374.442383 
	C408.768768,370.689972 411.538788,367.379944 415.011627,364.071442 
	C422.462097,366.512909 423.572845,372.869141 424.758667,378.493256 
	C426.450623,386.517792 426.557007,394.867859 428.089722,402.936615 
	C431.003387,418.275787 428.788300,433.578339 428.571289,448.901215 
	C428.501709,453.812256 427.589294,459.240204 429.306549,463.534271 
	C432.582306,471.725494 432.128815,479.615143 430.962860,487.912842 
	C430.430481,491.701630 431.054718,495.673981 431.330780,499.550507 
	C431.763733,505.629364 432.457123,511.690613 432.839630,517.771973 
	C433.421143,527.016968 433.514526,536.303589 434.412964,545.514282 
	C435.144104,553.009644 438.106293,560.522095 437.551727,567.835388 
	C437.091125,573.910156 438.845337,577.944824 442.180389,582.507996 
	C442.146271,584.261414 442.156830,585.611328 441.976318,587.044678 
	C441.700073,587.235474 441.523102,587.410400 441.544403,587.439331 
	C441.698334,587.648438 441.892365,587.828064 442.097046,588.443665 
	C440.325165,596.535583 438.529968,604.200928 436.734802,611.866211 
	C431.916382,624.010864 426.303070,635.875854 416.337128,644.561707 
	C409.860168,650.206726 402.022369,654.290222 394.431580,659.132935 
	C392.114929,653.827942 394.473206,650.468872 399.063812,647.916077 
	C402.034851,646.263855 404.108398,643.986816 402.236847,640.178589 
	C401.962616,639.620544 401.774292,638.681213 402.054016,638.240967 
	C406.389648,631.416931 403.110199,623.978638 403.859100,616.878967 
	C403.894012,616.548096 403.950623,616.218628 403.968323,615.887024 
	C404.647675,603.160828 405.255188,590.430359 406.027740,577.709900 
	C406.438171,570.952209 407.628998,564.207397 407.569153,557.464783 
	C407.502014,549.895691 406.247955,542.344910 405.842102,534.768372 
	C405.571014,529.707581 405.875458,524.615662 405.929504,519.537781 
	C405.965729,516.133423 406.147797,512.724670 406.031219,509.325867 
	C405.750092,501.131805 405.436462,492.936096 404.938599,484.753052 
	C404.473358,477.106110 403.751770,469.474854 403.149719,461.836151 
	C403.084503,461.008759 402.928375,460.158783 403.042603,459.351532 
	C404.749451,447.287750 406.210999,435.249939 403.147919,423.141052 
	C402.741425,421.534058 404.023926,419.568573 403.915710,417.806519 
	C403.031891,403.415802 403.304321,389.095428 405.999237,374.442383 
z"/>
<path fill="#0B1124" opacity="1.000000" stroke="none" 
	d="
M442.167389,586.961182 
	C442.156830,585.611328 442.146271,584.261414 442.530762,582.251831 
	C443.516052,572.045715 444.414001,562.506104 444.626312,552.951233 
	C444.966553,537.638550 444.852600,522.315674 444.930603,506.997101 
	C447.879120,507.262482 448.046814,505.385437 448.020081,503.165771 
	C447.955963,497.838257 447.763336,492.496338 448.057831,487.184357 
	C448.456390,479.995483 449.576508,472.838776 449.795471,465.650208 
	C449.976227,459.714844 448.715149,453.713196 449.121613,447.811737 
	C449.960754,435.627808 451.459900,423.488373 452.738831,411.336029 
	C453.482239,404.272339 454.107239,397.182922 455.268951,390.185333 
	C455.577728,388.325470 457.859650,385.221375 458.910187,385.349884 
	C462.121368,385.742554 466.012146,386.129303 466.968842,390.559143 
	C467.833496,394.562592 468.864227,398.530182 469.891205,402.802734 
	C471.672699,402.023865 472.808777,401.527191 474.273743,401.016968 
	C474.681244,401.828796 474.828766,402.654114 474.828705,403.479462 
	C474.824127,469.017792 474.808014,534.556091 474.697021,600.555542 
	C473.332184,602.327576 472.063110,603.638550 470.628967,605.120056 
	C468.799011,600.347168 466.235321,595.735413 467.636566,589.358093 
	C468.963348,583.319397 468.123077,576.762939 467.865631,570.449219 
	C467.806305,568.994263 466.236450,567.600769 465.361725,566.179016 
	C464.575043,567.603882 463.054962,569.067444 463.127594,570.447021 
	C463.455231,576.670532 464.259735,582.867981 464.830902,589.080444 
	C464.962097,590.507324 464.850250,591.956543 464.850250,593.726746 
	C462.740204,593.834412 461.112000,594.050110 459.497406,593.974670 
	C454.967926,593.763000 452.067139,595.888000 450.027161,599.821777 
	C448.061432,603.612366 446.077667,607.489685 443.418091,610.775391 
	C442.401764,612.030945 439.487854,611.750427 437.086761,612.018066 
	C438.529968,604.200928 440.325165,596.535583 442.195435,588.186279 
	C442.236115,587.321960 442.201752,587.141541 442.167389,586.961182 
z"/>
<path fill="#3A8CE6" opacity="1.000000" stroke="none" 
	d="
M502.319153,663.793152 
	C502.970367,663.383606 503.929871,663.120422 505.049042,663.161133 
	C504.348267,663.623230 503.487854,663.781372 502.319153,663.793152 
z"/>
<path fill="#24ABEE" opacity="1.000000" stroke="none" 
	d="
M668.270569,370.861359 
	C675.498108,375.053619 682.737488,379.225708 689.942688,383.456024 
	C691.308716,384.257996 692.539001,385.291077 693.927979,386.930420 
	C694.558655,388.807159 695.194153,389.936157 695.610901,391.140808 
	C697.878784,397.695801 705.665771,401.095581 705.009644,409.675873 
	C704.598633,415.050964 707.329407,420.590546 707.906189,426.133789 
	C708.896973,435.655579 707.252808,445.382294 711.478394,454.667664 
	C712.849060,457.679535 711.693115,461.844666 711.679504,465.482239 
	C711.661133,470.413788 711.318665,475.368713 711.687927,480.270477 
	C712.095520,485.682434 714.531555,491.285858 713.645203,496.381622 
	C711.599426,508.142517 714.802979,518.980164 717.562073,529.932922 
	C719.191711,536.402161 720.676270,542.346741 718.608948,549.268127 
	C716.034180,557.888489 715.157288,566.938232 717.007874,576.113892 
	C717.750610,579.796509 717.356201,583.922180 716.569519,587.654358 
	C715.014709,595.030640 712.686584,602.240295 710.950867,609.583313 
	C709.880676,614.110657 710.036377,618.823608 703.577942,619.947388 
	C699.590576,620.641174 699.139832,624.470337 700.261536,628.130676 
	C688.493652,637.988708 674.992554,644.741943 660.764771,650.199097 
	C660.168091,650.427979 659.630371,650.810364 658.373962,650.916504 
	C656.292847,642.507263 662.070190,636.698486 664.701294,629.844788 
	C665.973511,626.531067 668.403931,623.448914 668.850403,620.069092 
	C670.562134,607.110168 671.694641,594.074280 673.018188,581.064575 
	C673.727417,574.093750 673.704285,574.091370 667.076538,573.638977 
	C684.292053,552.785767 688.639160,528.431519 687.692322,502.754303 
	C686.727051,476.578247 678.895386,453.122772 658.873657,435.197632 
	C660.847961,435.530762 662.382874,435.998932 663.949097,436.308777 
	C665.026062,436.521820 666.617004,437.032013 667.173462,436.525421 
	C671.850708,432.266968 676.414917,427.936676 678.060242,421.381958 
	C679.701416,414.843933 678.664917,408.738861 676.855774,402.365387 
	C675.598938,397.937744 675.565552,392.991669 675.874878,388.336334 
	C676.219788,383.144989 675.754395,378.855560 670.872375,375.820618 
	C669.347046,374.872467 666.029663,374.102509 668.270569,370.861359 
z"/>
<path fill="#1EB2EF" opacity="1.000000" stroke="none" 
	d="
M700.569946,628.010254 
	C699.139832,624.470337 699.590576,620.641174 703.577942,619.947388 
	C710.036377,618.823608 709.880676,614.110657 710.950867,609.583313 
	C712.686584,602.240295 715.014709,595.030640 716.569519,587.654358 
	C717.356201,583.922180 717.750610,579.796509 717.007874,576.113892 
	C715.157288,566.938232 716.034180,557.888489 718.608948,549.268127 
	C720.676270,542.346741 719.191711,536.402161 717.562073,529.932922 
	C714.802979,518.980164 711.599426,508.142517 713.645203,496.381622 
	C714.531555,491.285858 712.095520,485.682434 711.687927,480.270477 
	C711.318665,475.368713 711.661133,470.413788 711.679504,465.482239 
	C711.693115,461.844666 712.849060,457.679535 711.478394,454.667664 
	C707.252808,445.382294 708.896973,435.655579 707.906189,426.133789 
	C707.329407,420.590546 704.598633,415.050964 705.009644,409.675873 
	C705.665771,401.095581 697.878784,397.695801 695.610901,391.140808 
	C695.194153,389.936157 694.558655,388.807159 694.031250,387.266510 
	C713.500061,399.307617 726.613708,417.209900 737.337341,437.143036 
	C745.083862,451.542297 749.497742,467.038177 752.148010,483.691040 
	C752.356567,484.898010 752.531494,485.513641 752.706421,486.129272 
	C752.745239,486.855316 752.784058,487.581329 752.892212,489.062988 
	C753.242432,491.908356 753.523254,493.998108 753.804077,496.087891 
	C753.783081,496.814697 753.762085,497.541534 753.762573,499.005188 
	C754.102295,500.370514 754.420410,500.998993 754.738525,501.627441 
	C754.544434,501.904816 754.350342,502.182190 754.166565,502.722748 
	C754.143066,506.705963 754.109131,510.426025 754.058105,515.023315 
	C753.815430,520.270020 753.589905,524.639465 753.364319,529.008911 
	C751.062317,549.894348 745.494202,569.767883 734.718750,588.682739 
	C734.132385,589.885315 733.874634,590.535034 733.616821,591.184753 
	C728.856079,597.362427 724.194153,603.620056 719.292847,609.684143 
	C716.832336,612.728394 713.936096,615.420471 711.101196,618.575562 
	C707.603088,621.882812 704.240723,624.886353 700.569946,628.010254 
z"/>
<path fill="#2BA0EB" opacity="1.000000" stroke="none" 
	d="
M666.963501,573.955750 
	C673.704285,574.091370 673.727417,574.093750 673.018188,581.064575 
	C671.694641,594.074280 670.562134,607.110168 668.850403,620.069092 
	C668.403931,623.448914 665.973511,626.531067 664.701294,629.844788 
	C662.070190,636.698486 656.292847,642.507263 658.010254,650.958069 
	C642.733154,657.283691 626.583618,660.947266 609.436646,661.673584 
	C611.241638,656.398010 613.319031,651.496521 615.793518,646.804443 
	C617.229919,644.080688 619.703857,641.883118 621.015747,639.118835 
	C624.741028,631.269104 623.258911,622.817810 622.539307,614.717651 
	C621.859863,607.069275 619.391174,605.747314 611.568665,606.024475 
	C610.269409,606.070435 608.942383,606.713806 607.700134,606.546631 
	C606.728455,606.415955 605.868164,605.457703 605.186707,604.523438 
	C607.375488,604.067566 609.410522,604.258179 611.285034,603.796753 
	C631.923035,598.717041 651.266846,591.128174 666.283081,574.848389 
	C666.726440,574.525146 666.887817,574.266602 666.978882,573.966797 
	C666.990234,573.976562 666.963501,573.955750 666.963501,573.955750 
z"/>
<path fill="#3297EA" opacity="1.000000" stroke="none" 
	d="
M604.958374,604.867126 
	C605.868164,605.457703 606.728455,606.415955 607.700134,606.546631 
	C608.942383,606.713806 610.269409,606.070435 611.568665,606.024475 
	C619.391174,605.747314 621.859863,607.069275 622.539307,614.717651 
	C623.258911,622.817810 624.741028,631.269104 621.015747,639.118835 
	C619.703857,641.883118 617.229919,644.080688 615.793518,646.804443 
	C613.319031,651.496521 611.241638,656.398010 608.997131,661.620605 
	C598.301270,662.446350 587.605896,662.863037 576.472717,663.197144 
	C576.711914,652.605103 577.549255,642.101807 577.955994,631.581848 
	C578.060913,628.867065 577.337036,625.818665 576.053833,623.428223 
	C574.465149,620.468811 573.169922,617.916016 575.108276,614.703979 
	C576.543335,612.325989 575.510315,611.339722 573.242615,609.768555 
	C567.043701,605.473633 560.042114,607.941956 553.742188,606.161133 
	C570.934875,605.470398 587.946594,605.168762 604.958374,604.867126 
z"/>
<path fill="#2BA0EB" opacity="1.000000" stroke="none" 
	d="
M612.583801,355.855194 
	C613.829285,355.833893 615.074768,355.812622 616.780396,356.108734 
	C617.827576,356.549500 618.414551,356.672882 619.001587,356.796265 
	C620.398865,356.806396 621.796204,356.816559 623.714233,357.175262 
	C624.823792,357.547943 625.412720,357.572083 626.001587,357.596191 
	C626.762512,357.662018 627.523376,357.727844 628.759216,358.150940 
	C629.823303,358.538544 630.412415,358.568878 631.001587,358.599182 
	C635.394836,359.525635 639.788086,360.452057 644.587463,361.440796 
	C646.219055,362.012787 647.444580,362.522461 648.850342,363.640442 
	C654.186707,369.581299 653.226685,375.934204 652.086487,382.335022 
	C652.007202,382.780060 652.303711,383.294159 652.433533,383.773956 
	C653.422546,387.429413 654.751404,391.038788 655.253296,394.759766 
	C655.484375,396.473480 654.444885,398.653442 653.357422,400.176361 
	C651.960693,402.132538 649.162903,403.326996 648.322876,405.398712 
	C645.459961,412.459106 640.950562,417.295197 633.329834,418.906219 
	C633.166809,418.940704 633.114319,419.497894 632.647461,419.776611 
	C624.485107,417.606262 616.685547,415.470612 609.075439,413.021606 
	C610.535889,411.736847 612.429504,411.031921 612.977783,409.751099 
	C616.744995,400.950623 620.278381,392.048248 623.748474,383.124817 
	C624.198853,381.966675 624.342224,380.241913 623.800354,379.217346 
	C620.180603,372.373840 619.198181,363.967041 611.926270,359.240570 
	C610.108093,358.058838 609.125977,356.351959 612.583801,355.855194 
z"/>
<path fill="#27A7ED" opacity="1.000000" stroke="none" 
	d="
M633.010315,419.811279 
	C633.114319,419.497894 633.166809,418.940704 633.329834,418.906219 
	C640.950562,417.295197 645.459961,412.459106 648.322876,405.398712 
	C649.162903,403.326996 651.960693,402.132538 653.357422,400.176361 
	C654.444885,398.653442 655.484375,396.473480 655.253296,394.759766 
	C654.751404,391.038788 653.422546,387.429413 652.433533,383.773956 
	C652.303711,383.294159 652.007202,382.780060 652.086487,382.335022 
	C653.226685,375.934204 654.186707,369.581299 649.072754,363.816833 
	C655.340454,365.696930 661.566162,368.008911 668.031250,370.591125 
	C666.029663,374.102509 669.347046,374.872467 670.872375,375.820618 
	C675.754395,378.855560 676.219788,383.144989 675.874878,388.336334 
	C675.565552,392.991669 675.598938,397.937744 676.855774,402.365387 
	C678.664917,408.738861 679.701416,414.843933 678.060242,421.381958 
	C676.414917,427.936676 671.850708,432.266968 667.173462,436.525421 
	C666.617004,437.032013 665.026062,436.521820 663.949097,436.308777 
	C662.382874,435.998932 660.847961,435.530762 658.583862,435.064087 
	C649.582153,429.935791 641.296204,424.873535 633.010315,419.811279 
z"/>
<path fill="#0F162D" opacity="1.000000" stroke="none" 
	d="
M754.115356,495.842773 
	C753.523254,493.998108 753.242432,491.908356 753.006714,489.409882 
	C756.544006,490.567749 754.813416,493.222717 754.115356,495.842773 
z"/>
<path fill="#0F162D" opacity="1.000000" stroke="none" 
	d="
M752.994751,485.940674 
	C752.531494,485.513641 752.356567,484.898010 752.243835,484.043091 
	C752.631653,484.453186 752.957397,485.102631 752.994751,485.940674 
z"/>
<path fill="#0F162D" opacity="1.000000" stroke="none" 
	d="
M754.802490,501.253845 
	C754.420410,500.998993 754.102295,500.370514 753.851685,499.359161 
	C754.234863,499.610962 754.550659,500.245575 754.802490,501.253845 
z"/>
<path fill="#4E81E4" opacity="1.000000" stroke="none" 
	d="
M444.849091,506.534393 
	C444.852600,522.315674 444.966553,537.638550 444.626312,552.951233 
	C444.414001,562.506104 443.516052,572.045715 442.575409,581.848267 
	C438.845337,577.944824 437.091125,573.910156 437.551727,567.835388 
	C438.106293,560.522095 435.144104,553.009644 434.412964,545.514282 
	C433.514526,536.303589 433.421143,527.016968 432.839630,517.771973 
	C432.457123,511.690613 431.763733,505.629364 431.330780,499.550507 
	C431.054718,495.673981 430.430481,491.701630 430.962860,487.912842 
	C432.128815,479.615143 432.582306,471.725494 429.306549,463.534271 
	C427.589294,459.240204 428.501709,453.812256 428.571289,448.901215 
	C428.788300,433.578339 431.003387,418.275787 428.089722,402.936615 
	C426.557007,394.867859 426.450623,386.517792 424.758667,378.493256 
	C423.572845,372.869141 422.462097,366.512909 415.357239,364.037079 
	C414.668121,361.037994 414.336243,358.074738 414.006409,354.703796 
	C423.376373,354.244720 432.744324,354.193390 442.723633,354.376892 
	C443.578735,354.813538 443.858734,354.920441 444.175018,354.932404 
	C444.356964,356.893585 444.696075,358.854645 444.697876,360.816010 
	C444.742798,409.234558 444.752014,457.653107 444.849091,506.534393 
z"/>
<path fill="#3297EA" opacity="1.000000" stroke="none" 
	d="
M612.248291,355.571320 
	C609.125977,356.351959 610.108093,358.058838 611.926270,359.240570 
	C619.198181,363.967041 620.180603,372.373840 623.800354,379.217346 
	C624.342224,380.241913 624.198853,381.966675 623.748474,383.124817 
	C620.278381,392.048248 616.744995,400.950623 612.977783,409.751099 
	C612.429504,411.031921 610.535889,411.736847 608.650635,412.948242 
	C598.355225,412.419922 588.674072,411.651672 578.992859,410.883423 
	C580.704590,410.413330 582.416321,409.943268 584.577820,409.349670 
	C586.832703,402.074921 590.218445,394.564148 591.208679,386.749817 
	C591.861572,381.596802 589.370789,375.912689 587.729492,370.640045 
	C586.173157,365.640015 583.889954,360.866241 581.526917,355.001434 
	C576.603943,355.001434 570.669067,355.077911 564.737183,354.979675 
	C558.962646,354.884064 553.190979,354.609558 547.231628,354.108643 
	C549.076599,353.660797 551.108093,353.517975 553.573792,353.295410 
	C566.075378,353.357483 578.142761,353.499359 590.933105,353.656250 
	C592.100342,353.626190 592.544556,353.581116 592.988831,353.536041 
	C599.296814,354.119843 605.604858,354.703644 612.248291,355.571320 
z"/>
<path fill="#0F162D" opacity="1.000000" stroke="none" 
	d="
M539.982300,352.793945 
	C534.640503,353.287079 529.291626,353.371826 523.482788,353.377930 
	C524.415405,351.836365 525.563110,349.917664 527.253662,349.008881 
	C530.413147,347.310425 538.225098,349.643738 539.982300,352.793945 
z"/>
<path fill="#5778E1" opacity="1.000000" stroke="none" 
	d="
M444.100708,354.680084 
	C443.858734,354.920441 443.578735,354.813538 443.191833,354.434662 
	C443.374542,354.314301 443.700470,354.371033 444.100708,354.680084 
z"/>
<path fill="#10172F" opacity="1.000000" stroke="none" 
	d="
M630.951538,358.344482 
	C630.412415,358.568878 629.823303,358.538544 629.138123,358.201538 
	C629.661926,357.959808 630.281677,358.024811 630.951538,358.344482 
z"/>
<path fill="#10172F" opacity="1.000000" stroke="none" 
	d="
M625.950623,357.340637 
	C625.412720,357.572083 624.823792,357.547943 624.134399,357.219757 
	C624.655823,356.972168 625.277710,357.028625 625.950623,357.340637 
z"/>
<path fill="#10172F" opacity="1.000000" stroke="none" 
	d="
M618.965576,356.529358 
	C618.414551,356.672882 617.827576,356.549500 617.157837,356.120819 
	C617.693237,355.964508 618.311462,356.113495 618.965576,356.529358 
z"/>
<path fill="#0D1429" opacity="1.000000" stroke="none" 
	d="
M592.932129,353.295837 
	C592.544556,353.581116 592.100342,353.626190 591.334656,353.565613 
	C591.633972,353.325195 592.254700,353.190399 592.932129,353.295837 
z"/>
<path fill="#10172F" opacity="1.000000" stroke="none" 
	d="
M753.728088,529.005859 
	C753.589905,524.639465 753.815430,520.270020 754.129395,515.449219 
	C758.358459,514.260681 760.441406,516.278015 760.809387,520.190247 
	C761.176758,524.095093 758.007019,528.103699 753.728088,529.005859 
z"/>
<path fill="#0C1327" opacity="1.000000" stroke="none" 
	d="
M733.930969,590.989990 
	C733.874634,590.535034 734.132385,589.885315 734.660645,589.016357 
	C734.702515,589.463135 734.473816,590.129150 733.930969,590.989990 
z"/>
<path fill="#0D1328" opacity="1.000000" stroke="none" 
	d="
M578.530579,410.960815 
	C588.674072,411.651672 598.355225,412.419922 608.461182,413.261597 
	C616.685547,415.470612 624.485107,417.606262 632.647461,419.776611 
	C641.296204,424.873535 649.582153,429.935791 658.157776,435.131592 
	C678.895386,453.122772 686.727051,476.578247 687.692322,502.754303 
	C688.639160,528.431519 684.292053,552.785767 667.076538,573.638977 
	C666.963501,573.955750 666.990234,573.976562 666.761719,574.064575 
	C666.260620,574.355164 666.110474,574.625732 666.082947,574.964233 
	C651.266846,591.128174 631.923035,598.717041 611.285034,603.796753 
	C609.410522,604.258179 607.375488,604.067566 605.186707,604.523438 
	C587.946594,605.168762 570.934875,605.470398 553.459656,605.851807 
	C552.555725,605.876221 552.115173,605.820862 550.949219,605.766907 
	C549.140747,605.818420 548.057800,605.868591 546.974854,605.918762 
	C545.025879,605.653320 543.076904,605.387878 541.003174,605.105469 
	C541.003174,540.455444 541.003174,476.083862 541.003174,411.038239 
	C553.548706,411.038239 565.808472,411.038239 578.530579,410.960815 
z"/>
<path fill="#3297EA" opacity="1.000000" stroke="none" 
	d="
M547.181641,606.194336 
	C548.057800,605.868591 549.140747,605.818420 550.623962,605.849121 
	C549.812317,606.109924 548.600342,606.289917 547.181641,606.194336 
z"/>
<path fill="#4E81E4" opacity="1.000000" stroke="none" 
	d="
M441.976318,587.044678 
	C442.201752,587.141541 442.236115,587.321960 442.172089,587.759644 
	C441.892365,587.828064 441.698334,587.648438 441.544403,587.439331 
	C441.523102,587.410400 441.700073,587.235474 441.976318,587.044678 
z"/>
<path fill="#24ABEE" opacity="1.000000" stroke="none" 
	d="
M666.283081,574.848389 
	C666.110474,574.625732 666.260620,574.355164 666.750366,574.054810 
	C666.887817,574.266602 666.726440,574.525146 666.283081,574.848389 
z"/>
</svg>